<svg id="Layer_1" data-name="Layer 1" xmlns="http://www.w3.org/2000/svg" viewBox="0 0 800 200"><defs><style>.cls-1{fill:#ba2025;}.cls-2{fill:#231f20;}.cls-3{fill:#bbbcbc;}.cls-4{fill:#63676b;}</style></defs><polygon class="cls-1" points="321.72 77.19 321.72 91.28 324.06 91.28 324.06 92.21 314.68 92.21 314.68 91.28 317.02 91.28 317.02 78.19 315.2 78.19 315.2 77.19 321.72 77.19"/><path class="cls-1" d="M229,68.1h-.85c0,.72-.41,1-1.13,1-1.45,0-3.57-1.76-6-1.76-7.07,0-11.35,7-11.35,13.1s4.07,12.28,10.9,12.28c4.14,0,5.69-2,6.79-2,.73,0,.86.63.86,1.41h.94V83.76h-.94L228,84.93c-.48,2.8-2.65,6.92-7.1,6.92-3.93,0-5.45-3.4-5.45-11.78,0-8.8,2.07-11.75,5.56-11.75,3.93,0,6.63,4.4,7.18,7.92H229Z"/><path class="cls-1" d="M241.12,88.16c-.07,1.81-1.09,3.28-2.69,3.28-2.31,0-2.42-2-2.42-3.44,0-1.81.21-3,2.42-3.23l2.69-.28Zm6.21,1.13c0,.88-.58,1.9-1,1.9-.61,0-.75-.65-.75-1.7V81.66c0-3.87-3.64-4.83-7.15-4.83s-5.88,1.67-5.88,3.58a2,2,0,0,0,2.21,2.21,1.93,1.93,0,0,0,2.07-2c0-1.73-1.79-1.76-1.79-1.8,0-.77,2-1,3.16-1,2.55,0,2.89.94,2.89,3V83.6l-3.34.27c-3.09.24-6.46,1.06-6.46,4.6,0,3,2.65,4.15,5.27,4.15,1.33,0,3.68-.51,4.56-2.14a3.5,3.5,0,0,0,3.4,2.14c2.21,0,3.64-1.33,3.64-3.33Z"/><polygon class="cls-1" points="563.68 77.14 563.68 91.23 566.03 91.23 566.03 92.16 556.64 92.16 556.64 91.23 558.99 91.23 558.99 78.14 556.64 78.14 556.64 77.14 563.68 77.14"/><path class="cls-1" d="M359.74,84.41l5.63-16.12h7.78l0,1H370.9v22h2.23v.94h-9.34v-.94h2.26V69.49H366l-7.93,22.72h-.92L349,69.08h-.07V88.37c0,2.75.72,2.9,2.55,2.9h.11v.94h-5.88v-.94h0c1.94,0,2.3-1.13,2.3-2.6V69.25h-2.3v-1h8.53Z"/><path class="cls-1" d="M378.56,83.06V80.77c0-2.28,1-3,2.15-3,1.63,0,2.14,1.12,2.14,3v2.29Zm0,.92H388c0-3.67-3.43-7.21-7-7.14a7.78,7.78,0,0,0-7.48,8.06,7.46,7.46,0,0,0,7.59,7.72c4.18,0,6.26-2.58,7-6h-.92c-.75,3.16-2.41,5-5.06,5-3.17,0-3.51-2.48-3.51-4.79Z"/><path class="cls-1" d="M519.89,83V80.72c0-2.28,1-3,2.14-3,1.63,0,2.14,1.13,2.14,3V83Zm0,.93h9.39c0-3.68-3.44-7.22-7-7.15a7.78,7.78,0,0,0-7.49,8.06,7.46,7.46,0,0,0,7.59,7.73c4.18,0,6.26-2.59,7-6h-.93c-.75,3.17-2.41,5-5.06,5-3.16,0-3.5-2.47-3.5-4.79Z"/><polygon class="cls-1" points="388.01 68.32 388.01 69.18 390.36 69.18 390.36 91.25 388.01 91.25 388.01 92.21 397.4 92.21 397.4 91.25 395.05 91.25 395.05 68.32 388.01 68.32"/><polygon class="cls-1" points="398.06 68.32 398.06 69.18 400.4 69.18 400.4 91.25 398.06 91.25 398.06 92.21 407.44 92.21 407.44 91.25 405.1 91.25 405.1 68.32 398.06 68.32"/><path class="cls-1" d="M418.24,88.09c0,2.55-1.06,3.61-2.79,3.61s-2.79-1.06-2.79-3.61V81.4c0-2.56,1-3.61,2.79-3.61s2.79,1,2.79,3.61Zm5.31-3.36a8.1,8.1,0,1,0-8.1,7.89,7.8,7.8,0,0,0,8.1-7.89"/><path class="cls-1" d="M448,69.1h2.38V84.21c0,5.27,3.64,8.47,9.18,8.47,6.26,0,9-3.3,9-8.3V71.46c0-2,.55-2.36,1.77-2.36H471v-.91h-6v.91h.43c1.73,0,2,.52,2,2.49V84.72c0,4.63-2.87,6.73-5.78,6.73-5,0-6-3.33-6.25-7.68V69.1h2.23v-.91H448Z"/><path class="cls-1" d="M506.9,92.54h.92l5-11.9c1-2.23,1.56-2.51,2.35-2.54h.3v-.93h-5.3v.94h.64c1,0,1.44-.07,1.44.82A5.4,5.4,0,0,1,511.7,81l-2.31,5.45-3.7-8.33h1.89v-.94H499v.94h1.6Z"/><path class="cls-1" d="M544.8,92.54h.81a1.09,1.09,0,0,1,1.2-.81c.88,0,1.94.81,3.84.81A5.55,5.55,0,0,0,556.09,87c0-4.15-2.85-4.45-6.49-5-1.91-.28-3-.55-3-2s1.4-2.27,3.23-2.27c2.56,0,3.55,1.69,4.39,3.9H555V76.76h-.77c0,.41-.35.75-1,.75-1.09,0-2-.75-3.54-.75a5.06,5.06,0,0,0-5.07,5.07c0,4.39,3.34,4.76,5.92,5.07s3.34.46,3.34,2c0,1.81-1.5,2.63-3.34,2.63-2.58,0-4.36-2.24-5-4.72h-.81Z"/><polygon class="cls-1" points="497.79 77.14 497.79 91.23 500.14 91.23 500.14 92.16 490.75 92.16 490.75 91.23 493.1 91.23 493.1 78.14 490.75 78.14 490.75 77.14 497.79 77.14"/><path class="cls-1" d="M493.1,72.45a2.35,2.35,0,1,0,2.35-2.34,2.34,2.34,0,0,0-2.35,2.34"/><path class="cls-1" d="M559,72.45a2.35,2.35,0,1,0,2.35-2.34A2.33,2.33,0,0,0,559,72.45"/><path class="cls-1" d="M288.26,83.05V80.76c0-2.27,1-3,2.14-3,1.64,0,2.15,1.12,2.15,3v2.29Zm0,.92h9.39c0-3.67-3.44-7.21-7-7.14a7.78,7.78,0,0,0-7.48,8.06,7.45,7.45,0,0,0,7.58,7.72c4.19,0,6.26-2.58,7-6h-.93c-.74,3.17-2.4,5-5.06,5-3.16,0-3.5-2.47-3.5-4.79Z"/><path class="cls-1" d="M329.33,83.05V80.76c0-2.27,1-3,2.14-3s2.15.71,2.15,3v2.29Zm0,.92h9.39c0-3.67-3.44-7.21-7-7.14a7.78,7.78,0,0,0-7.48,8.06,7.45,7.45,0,0,0,7.58,7.72c4.19,0,6.26-2.58,7-6h-.92c-.75,3.17-2.41,5-5.07,5-3.16,0-3.5-2.47-3.5-4.79Z"/><path class="cls-1" d="M487.74,91.24V82.05c0-3.67-1.56-5.39-4.79-5.39A6.18,6.18,0,0,0,477.43,80h0V77.19h-7v.92h2.35V91.24h-2.35v.92h9.05v-.92h-2v-9c.3-1.26,1.9-4.17,3.75-4.17,1.24,0,1.87.42,1.87,2.71V91.24h-1.94v.92h9v-.92Z"/><path class="cls-1" d="M430.58,77.25V80h0a6.18,6.18,0,0,1,5.51-3.28c3.23,0,4.79,1.72,4.79,5.39v9.18h2.35v.92h-9v-.92h1.94V80.85c0-2.28-.63-2.71-1.86-2.71-1.86,0-3.46,2.91-3.75,4.18v9h2v.92h-9.05v-.92h2.35V78.16h-2.35v-.91Z"/><path class="cls-1" d="M280.77,91.29V82.1c0-3.67-1.56-5.39-4.79-5.39A6.17,6.17,0,0,0,270.47,80h0V77.24h-7v.92h2.35V91.29h-2.35v.92h9.05v-.92h-2v-9c.3-1.26,1.9-4.18,3.76-4.18,1.23,0,1.86.43,1.86,2.71V91.29h-1.94v.92h9v-.92Z"/><path class="cls-1" d="M317,72.54a2.35,2.35,0,1,0,2.34-2.34A2.33,2.33,0,0,0,317,72.54"/><path class="cls-1" d="M586.52,77.15v1c1.45,0,2.08.13,2.08.79A5.4,5.4,0,0,1,588,81l-2.31,5.45L582,78.14H584v-1H572.23v-7.3h-.61c0,3.61-2.45,7.32-5.89,7.32v1h1.81V88.67a3.72,3.72,0,0,0,3.74,3.87,4.84,4.84,0,0,0,4.52-2.62l-.73-.4c-.41.62-1,1.43-1.8,1.43-.68,0-1-.48-1-1.6V78.14H577l6.22,14.33L581,97.54h0a.29.29,0,0,1-.26.17.28.28,0,0,1-.26-.19v0a2.31,2.31,0,0,0-2.24-1.7,2.34,2.34,0,0,0-1.07,4.42h0l.08,0,.13.06a2.45,2.45,0,0,0,.86.18c2,.17,3-1.29,3.68-2.78.16-.33.3-.67.43-1,.3-.72.82-2,1.44-3.41h0l.59-1.38h0l4.78-11.31c1-2.23,1.41-2.51,2.65-2.51h0v-1Z"/><path class="cls-1" d="M260,76.67a4.89,4.89,0,0,0-4.5,3.2h-.06V77.28h-7v1h2.35V91.32h-2.35v.93h10.17v-.93H255.5V84c0-2.18.58-4.42,2-5.66a.27.27,0,0,1,.44.26h0a3.14,3.14,0,0,0-.19,1,2.21,2.21,0,0,0,2.32,2.21,2.46,2.46,0,0,0,2.58-2.49A2.48,2.48,0,0,0,260,76.67Z"/><path class="cls-1" d="M311.2,77.78c.06,0,.15,0,.2,0a.14.14,0,0,1,0,.18h0a1.49,1.49,0,0,0-.12,1.25,1.4,1.4,0,0,0,1,.92,1.45,1.45,0,0,0,1.82-1.42,1.59,1.59,0,0,0-.8-1.33,2.78,2.78,0,0,0-1.5-.39,4.06,4.06,0,0,0-2.5,1.06h0a5.72,5.72,0,0,0-.48-.32,7.4,7.4,0,0,0-3.77-.91c-2.86,0-5.92,1.87-5.92,5A4.42,4.42,0,0,0,302,86V86a3.72,3.72,0,0,0-3.4,3.91,3.23,3.23,0,0,0,2.21,3.4v.07a3.92,3.92,0,0,0-2.92,3.37c0,2.52,2.95,4.45,6.73,4.45,4.73,0,7.83-3.19,7.83-7.34,0-3.3-1.64-4.8-5-4.73h-5.65c-.85,0-1.42,0-1.42-1s1.31-1.77,2.6-1.77a2.51,2.51,0,0,1,.69.2,4.48,4.48,0,0,0,1.4.21c2.92,0,6.05-1.67,6.05-4.9a5,5,0,0,0-1.24-3.22.11.11,0,0,1,0-.17,7.06,7.06,0,0,1,.89-.58,1.76,1.76,0,0,1,.4-.18Zm-4.52,15.65c3.4,0,4.3.15,4.3,2.22,0,2.49-3,4.76-6.47,4.76-3.07,0-4.54-1.87-4.6-3.51a4.91,4.91,0,0,1,1.66-3.47Zm.57-11.62c0,4-.91,4.09-2.14,4.09S303,85.64,303,81.71c0-2.76.3-3.93,2.07-3.93,1.6,0,2.11.11,2.14,4Z"/><path class="cls-1" d="M541.19,76.54a4.87,4.87,0,0,0-4.49,3.2h-.07V77.15h-7v.95H532V91.19h-2.35v.93h10.17v-.93H536.7V83.86c0-2.19.57-4.43,2-5.66a.27.27,0,0,1,.29,0,.29.29,0,0,1,.15.29h0a3.16,3.16,0,0,0-.18,1,2.2,2.2,0,0,0,2.31,2.21,2.55,2.55,0,1,0-.1-5.1Z"/><path class="cls-2" d="M222.43,111.67a9.18,9.18,0,0,0-7.21,2.94c-1.76,2-2.63,4.63-2.63,8s.82,6.17,2.48,8.09a8.85,8.85,0,0,0,7.09,2.88,19.37,19.37,0,0,0,5.64-.78v1.5a18.38,18.38,0,0,1-6,.85,10.24,10.24,0,0,1-8.07-3.32q-3-3.31-2.95-9.26a14.6,14.6,0,0,1,1.4-6.54,10.22,10.22,0,0,1,4.05-4.38,12,12,0,0,1,6.14-1.54,14.86,14.86,0,0,1,6.38,1.33L228,113A12.35,12.35,0,0,0,222.43,111.67Z"/><path class="cls-2" d="M245.43,125.77a10.22,10.22,0,0,1-2.15,6.92,7.42,7.42,0,0,1-5.93,2.49,7.65,7.65,0,0,1-4.2-1.15,7.43,7.43,0,0,1-2.78-3.3,12.06,12.06,0,0,1-1-5,10.16,10.16,0,0,1,2.15-6.91,7.38,7.38,0,0,1,5.89-2.47,7.28,7.28,0,0,1,5.86,2.51A10.32,10.32,0,0,1,245.43,125.77Zm-14.29,0a9.22,9.22,0,0,0,1.64,5.82,6.2,6.2,0,0,0,9.28,0,9.22,9.22,0,0,0,1.64-5.82A9.06,9.06,0,0,0,242,120a5.64,5.64,0,0,0-4.65-2.06,5.55,5.55,0,0,0-4.63,2.06A9.2,9.2,0,0,0,231.14,125.77Z"/><path class="cls-2" d="M272.93,134.85V123a5.91,5.91,0,0,0-1-3.87,3.92,3.92,0,0,0-3.17-1.21,5.17,5.17,0,0,0-4.11,1.53,7.23,7.23,0,0,0-1.33,4.82v10.61H261.6V122.47q0-4.57-4.19-4.58a4.93,4.93,0,0,0-4.15,1.66q-1.31,1.65-1.3,5.3v10h-1.65V116.74h1.37l.35,2.48h.1a5.11,5.11,0,0,1,2.13-2.09,6.4,6.4,0,0,1,3.05-.74q4.28,0,5.49,3.21h.07a6.23,6.23,0,0,1,2.37-2.38,6.92,6.92,0,0,1,3.39-.83,5.83,5.83,0,0,1,4.45,1.58c1,1.06,1.48,2.73,1.48,5v11.85Z"/><path class="cls-2" d="M288.65,135.18a6.59,6.59,0,0,1-6.09-3.13h-.12l.05,1.4c0,.82.07,1.72.07,2.7V143h-1.65v-26.3h1.4l.31,2.58h.1a6.56,6.56,0,0,1,6-2.93,6.7,6.7,0,0,1,5.58,2.41c1.29,1.6,1.93,3.94,1.93,7a10.59,10.59,0,0,1-2,6.92A6.76,6.76,0,0,1,288.65,135.18Zm0-1.47a5,5,0,0,0,4.31-2.06,9.64,9.64,0,0,0,1.52-5.78q0-8-5.76-8a5.79,5.79,0,0,0-4.65,1.74q-1.49,1.74-1.48,5.67v.53q0,4.26,1.42,6.07T288.62,133.71Z"/><path class="cls-2" d="M303.26,116.74v11.73a5.71,5.71,0,0,0,1.15,4,4.62,4.62,0,0,0,3.56,1.24,6.22,6.22,0,0,0,4.76-1.63c1-1.09,1.52-2.86,1.52-5.32v-10h1.64v18.11h-1.4l-.3-2.5h-.1q-1.77,2.84-6.28,2.83-6.18,0-6.18-6.61V116.74Z"/><path class="cls-2" d="M327.72,133.71a12.22,12.22,0,0,0,2.73-.26v1.33a8.63,8.63,0,0,1-2.76.4,4.52,4.52,0,0,1-3.54-1.28,6,6,0,0,1-1.14-4v-11.7h-2.69v-1l2.69-.75.83-4.1h.85v4.38H330v1.43h-5.31v11.46a5.2,5.2,0,0,0,.73,3.08A2.66,2.66,0,0,0,327.72,133.71Z"/><path class="cls-2" d="M341.78,135.18a7.88,7.88,0,0,1-6.15-2.43,9.78,9.78,0,0,1-2.21-6.82,10.6,10.6,0,0,1,2.13-6.93,7,7,0,0,1,5.75-2.61,6.22,6.22,0,0,1,5.05,2.23,9.24,9.24,0,0,1,1.85,6.07V126H335.15a8.63,8.63,0,0,0,1.74,5.69,6.1,6.1,0,0,0,4.89,2,14.71,14.71,0,0,0,2.73-.22,16,16,0,0,0,3-.93V134a13.53,13.53,0,0,1-2.83.91A15.85,15.85,0,0,1,341.78,135.18Zm-.48-17.33a5.44,5.44,0,0,0-4.2,1.73,8.18,8.18,0,0,0-1.85,5h11.2a7.88,7.88,0,0,0-1.37-4.92A4.51,4.51,0,0,0,341.3,117.85Z"/><path class="cls-2" d="M361.45,116.39a14.75,14.75,0,0,1,2.47.23l-.32,1.58a10.14,10.14,0,0,0-2.35-.28,4.58,4.58,0,0,0-3.8,2,8,8,0,0,0-1.48,5v10h-1.65V116.74h1.4l.17,3.26H356a7.77,7.77,0,0,1,2.38-2.8A5.6,5.6,0,0,1,361.45,116.39Z"/><path class="cls-2" d="M389,128.57a5.83,5.83,0,0,1-2.24,4.83,9.25,9.25,0,0,1-5.95,1.78,18.79,18.79,0,0,1-6.85-1v-1.7a17.43,17.43,0,0,0,6.72,1.11,7.49,7.49,0,0,0,4.75-1.37,4.38,4.38,0,0,0,1.76-3.61,4.25,4.25,0,0,0-.58-2.29,5.34,5.34,0,0,0-1.9-1.65,23.73,23.73,0,0,0-3.87-1.62,13.3,13.3,0,0,1-5.15-2.77,5.53,5.53,0,0,1-1.43-4,5.47,5.47,0,0,1,2.14-4.45,8.51,8.51,0,0,1,5.51-1.73,16.27,16.27,0,0,1,6.45,1.3l-.62,1.47a15,15,0,0,0-5.8-1.27,6.83,6.83,0,0,0-4.3,1.25,4.1,4.1,0,0,0-1.6,3.4,4.38,4.38,0,0,0,.5,2.21,4.44,4.44,0,0,0,1.6,1.56,21.91,21.91,0,0,0,3.83,1.66,20.91,20.91,0,0,1,4.29,1.91,6.06,6.06,0,0,1,2.09,2.1A5.71,5.71,0,0,1,389,128.57Z"/><path class="cls-2" d="M400.46,135.18a7.79,7.79,0,0,1-6.09-2.45,9.89,9.89,0,0,1-2.19-6.83,10,10,0,0,1,2.28-7,8,8,0,0,1,6.24-2.51,12.42,12.42,0,0,1,4.5.82l-.45,1.46a13.18,13.18,0,0,0-4.08-.78,6.19,6.19,0,0,0-5.05,2.06,9,9,0,0,0-1.71,5.92,8.79,8.79,0,0,0,1.71,5.74,5.91,5.91,0,0,0,4.8,2.07,11.72,11.72,0,0,0,4.58-.88v1.53A10.3,10.3,0,0,1,400.46,135.18Z"/><path class="cls-2" d="M408.42,111.71c0-1.07.35-1.6,1.05-1.6a.92.92,0,0,1,.8.42,2,2,0,0,1,.3,1.18,2,2,0,0,1-.3,1.18.9.9,0,0,1-.8.43C408.77,113.32,408.42,112.79,408.42,111.71Zm1.88,23.14h-1.65V116.74h1.65Z"/><path class="cls-2" d="M423.51,135.18a7.89,7.89,0,0,1-6.16-2.43,9.78,9.78,0,0,1-2.21-6.82,10.6,10.6,0,0,1,2.13-6.93,7.05,7.05,0,0,1,5.75-2.61,6.2,6.2,0,0,1,5.05,2.23,9.24,9.24,0,0,1,1.85,6.07V126H416.87a8.57,8.57,0,0,0,1.75,5.69,6.08,6.08,0,0,0,4.89,2,14.6,14.6,0,0,0,2.72-.22,16,16,0,0,0,3-.93V134a13.35,13.35,0,0,1-2.83.91A15.82,15.82,0,0,1,423.51,135.18ZM423,117.85a5.44,5.44,0,0,0-4.2,1.73,8.18,8.18,0,0,0-1.85,5h11.2a7.88,7.88,0,0,0-1.37-4.92A4.51,4.51,0,0,0,423,117.85Z"/><path class="cls-2" d="M447.3,134.85V123.1a5.76,5.76,0,0,0-1.14-4,4.65,4.65,0,0,0-3.57-1.24,6.2,6.2,0,0,0-4.76,1.64c-1,1.09-1.5,2.87-1.5,5.32v10h-1.65V116.74h1.4l.31,2.48h.1q1.77-2.84,6.28-2.83,6.17,0,6.17,6.61v11.85Z"/><path class="cls-2" d="M461.26,135.18a7.77,7.77,0,0,1-6.08-2.45,9.84,9.84,0,0,1-2.2-6.83,10,10,0,0,1,2.28-7,8,8,0,0,1,6.25-2.51,12.46,12.46,0,0,1,4.5.82l-.45,1.46a13.29,13.29,0,0,0-4.08-.78,6.16,6.16,0,0,0-5.05,2.06,9,9,0,0,0-1.72,5.92,8.74,8.74,0,0,0,1.72,5.74,5.88,5.88,0,0,0,4.8,2.07,11.75,11.75,0,0,0,4.58-.88v1.53A10.35,10.35,0,0,1,461.26,135.18Z"/><path class="cls-2" d="M476.32,135.18a7.88,7.88,0,0,1-6.15-2.43,9.74,9.74,0,0,1-2.21-6.82,10.6,10.6,0,0,1,2.13-6.93,7,7,0,0,1,5.75-2.61,6.22,6.22,0,0,1,5.05,2.23,9.24,9.24,0,0,1,1.84,6.07V126h-13a8.52,8.52,0,0,0,1.74,5.69,6.1,6.1,0,0,0,4.89,2,14.6,14.6,0,0,0,2.72-.22,15.86,15.86,0,0,0,3-.93V134a13.53,13.53,0,0,1-2.83.91A15.93,15.93,0,0,1,476.32,135.18Zm-.48-17.33a5.42,5.42,0,0,0-4.2,1.73,8.12,8.12,0,0,0-1.85,5H481a7.88,7.88,0,0,0-1.36-4.92A4.51,4.51,0,0,0,475.84,117.85Z"/><path class="cls-2" d="M514.14,122.44q0,6.12-3.22,9.27t-9.44,3.14h-5.83V110.49h6.58q5.82,0,8.87,3.05C513.12,115.57,514.14,118.54,514.14,122.44Zm-1.85.06c0-3.48-.89-6.11-2.66-7.87s-4.37-2.64-7.8-2.64h-4.49v21.36h4Q512.29,133.35,512.29,122.5Z"/><path class="cls-2" d="M526.07,135.18a7.88,7.88,0,0,1-6.15-2.43,9.74,9.74,0,0,1-2.21-6.82,10.6,10.6,0,0,1,2.13-6.93,7,7,0,0,1,5.75-2.61,6.22,6.22,0,0,1,5,2.23,9.24,9.24,0,0,1,1.84,6.07V126h-13a8.52,8.52,0,0,0,1.74,5.69,6.1,6.1,0,0,0,4.89,2,14.6,14.6,0,0,0,2.72-.22,15.86,15.86,0,0,0,3-.93V134a13.53,13.53,0,0,1-2.83.91A15.85,15.85,0,0,1,526.07,135.18Zm-.48-17.33a5.43,5.43,0,0,0-4.2,1.73,8.12,8.12,0,0,0-1.85,5h11.2a7.88,7.88,0,0,0-1.37-4.92A4.51,4.51,0,0,0,525.59,117.85Z"/><path class="cls-2" d="M545.09,135.18a6.59,6.59,0,0,1-6.09-3.13h-.12l0,1.4c0,.82.07,1.72.07,2.7V143h-1.65v-26.3h1.4l.31,2.58h.1a6.56,6.56,0,0,1,6-2.93,6.7,6.7,0,0,1,5.58,2.41c1.29,1.6,1.93,3.94,1.93,7a10.59,10.59,0,0,1-2,6.92A6.76,6.76,0,0,1,545.09,135.18Zm0-1.47a5,5,0,0,0,4.31-2.06,9.64,9.64,0,0,0,1.52-5.78q0-8-5.76-8a5.79,5.79,0,0,0-4.65,1.74Q539,121.37,539,125.3v.53q0,4.26,1.42,6.07T545.06,133.71Z"/><path class="cls-2" d="M568.15,134.85l-.42-2.87h-.13a8.67,8.67,0,0,1-2.81,2.48,7.55,7.55,0,0,1-3.41.72,5.92,5.92,0,0,1-4.15-1.37,4.91,4.91,0,0,1-1.48-3.78,4.67,4.67,0,0,1,2.21-4.11,11.92,11.92,0,0,1,6.39-1.55l3.45-.1v-1.2a6.17,6.17,0,0,0-1-3.9,4.07,4.07,0,0,0-3.39-1.32,11.36,11.36,0,0,0-5.21,1.4l-.62-1.43a13.87,13.87,0,0,1,5.9-1.4,5.91,5.91,0,0,1,4.46,1.55,6.81,6.81,0,0,1,1.47,4.83v12Zm-6.67-1.17a5.78,5.78,0,0,0,6.25-6.26v-1.79l-3.17.14a12,12,0,0,0-5.44,1.19,3.43,3.43,0,0,0-1.62,3.14,3.4,3.4,0,0,0,1,2.64A4.24,4.24,0,0,0,561.48,133.68Z"/><path class="cls-2" d="M583,116.39a14.54,14.54,0,0,1,2.46.23l-.31,1.58a10.14,10.14,0,0,0-2.35-.28,4.58,4.58,0,0,0-3.8,2,8,8,0,0,0-1.48,5v10h-1.65V116.74h1.4l.17,3.26h.11a7.77,7.77,0,0,1,2.38-2.8A5.6,5.6,0,0,1,583,116.39Z"/><path class="cls-2" d="M594.24,133.71a12.28,12.28,0,0,0,2.73-.26v1.33a8.63,8.63,0,0,1-2.76.4,4.52,4.52,0,0,1-3.54-1.28,5.91,5.91,0,0,1-1.15-4v-11.7h-2.68v-1l2.68-.75.84-4.1h.85v4.38h5.31v1.43h-5.31v11.46a5.2,5.2,0,0,0,.73,3.08A2.65,2.65,0,0,0,594.24,133.71Z"/><path class="cls-2" d="M623.68,134.85V123a6,6,0,0,0-1-3.87,3.94,3.94,0,0,0-3.17-1.21,5.16,5.16,0,0,0-4.11,1.53,7.23,7.23,0,0,0-1.34,4.82v10.61h-1.68V122.47q0-4.57-4.2-4.58a4.94,4.94,0,0,0-4.15,1.66c-.86,1.1-1.3,2.87-1.3,5.3v10h-1.64V116.74h1.36l.35,2.48h.1a5.17,5.17,0,0,1,2.13-2.09,6.43,6.43,0,0,1,3-.74q4.29,0,5.5,3.21h.07a6.23,6.23,0,0,1,2.37-2.38,6.86,6.86,0,0,1,3.39-.83,5.83,5.83,0,0,1,4.45,1.58c1,1.06,1.48,2.73,1.48,5v11.85Z"/><path class="cls-2" d="M639.17,135.18a7.92,7.92,0,0,1-6.16-2.43,9.78,9.78,0,0,1-2.2-6.82,10.6,10.6,0,0,1,2.13-6.93,7,7,0,0,1,5.75-2.61,6.18,6.18,0,0,1,5,2.23,9.19,9.19,0,0,1,1.85,6.07V126h-13a8.52,8.52,0,0,0,1.74,5.69,6.1,6.1,0,0,0,4.89,2,14.6,14.6,0,0,0,2.72-.22,15.86,15.86,0,0,0,3-.93V134a13.53,13.53,0,0,1-2.83.91A15.93,15.93,0,0,1,639.17,135.18Zm-.48-17.33a5.42,5.42,0,0,0-4.2,1.73,8.12,8.12,0,0,0-1.85,5h11.19a7.88,7.88,0,0,0-1.36-4.92A4.51,4.51,0,0,0,638.69,117.85Z"/><path class="cls-2" d="M663.75,134.85V123.1a5.76,5.76,0,0,0-1.14-4,4.65,4.65,0,0,0-3.57-1.24,6.2,6.2,0,0,0-4.76,1.64c-1,1.09-1.5,2.87-1.5,5.32v10h-1.65V116.74h1.4l.31,2.48h.1q1.77-2.84,6.28-2.83,6.16,0,6.17,6.61v11.85Z"/><path class="cls-2" d="M676.71,133.71a12.32,12.32,0,0,0,2.74-.26v1.33a8.69,8.69,0,0,1-2.77.4,4.52,4.52,0,0,1-3.54-1.28,6,6,0,0,1-1.14-4v-11.7h-2.68v-1l2.68-.75.83-4.1h.85v4.38H679v1.43h-5.32v11.46a5.19,5.19,0,0,0,.74,3.08A2.63,2.63,0,0,0,676.71,133.71Z"/><g id="Group-7"><g id="Group-3"><path id="Fill-1" class="cls-3" d="M166.58,90H160a5.74,5.74,0,1,0,0,11.48h4c8.86,0,15.11,5.25,15.11,14.59,0,10.16-7,14.59-15.25,14.59H160a5.79,5.79,0,0,0-5.83,5.74h0a5.79,5.79,0,0,0,5.83,5.74h6.57c14.69,0,26.92-11.41,26.92-26.07S181.34,90,166.58,90"/></g><g id="Group-6"><path id="Fill-4" class="cls-4" d="M155.48,69h6.58a5.79,5.79,0,0,1,5.83,5.74h0a5.79,5.79,0,0,1-5.83,5.74H158c-8.85,0-15.1,5.26-15.1,14.59,0,10.17,7,14.59,15.24,14.59h3.91a5.79,5.79,0,0,1,5.83,5.74h0a5.79,5.79,0,0,1-5.83,5.74h-6.58c-14.68,0-26.91-11.41-26.91-26.07S140.73,69,155.48,69"/></g></g></svg>